<?xml version="1.0" encoding="UTF-8"?>
<svg width="400" height="400" viewBox="0 0 200 200" xmlns="http://www.w3.org/2000/svg">
    <style>
        .heavy {
            font: bold 15px serif;
        }

        .small {
            font: bold 10px serif;
        }
    </style>
    
    <defs>
        <path
            id="branch"
            d="
                M 100 10 L 100 15
            " 
            stroke="#000000"
            stroke-width="0.4"
        />
    </defs>
    <use href="#branch" />
    <use href="#branch" transform="rotate(2 100 100)" />
    <use href="#branch" transform="rotate(4 100 100)" />
    <use href="#branch" transform="rotate(6 100 100)" />
    <use href="#branch" transform="rotate(8 100 100)" />
    <use href="#branch" transform="rotate(10 100 100)" />
    <use href="#branch" transform="rotate(12 100 100)" />
    <use href="#branch" transform="rotate(14 100 100)" />
    <use href="#branch" transform="rotate(16 100 100)" />
    <use href="#branch" transform="rotate(18 100 100)" />
    <use href="#branch" transform="rotate(20 100 100)" />
    <use href="#branch" transform="rotate(22 100 100)" />
    <use href="#branch" transform="rotate(24 100 100)" />
    <use href="#branch" transform="rotate(26 100 100)" />
    <use href="#branch" transform="rotate(28 100 100)" />
    <use href="#branch" transform="rotate(30 100 100)" />
    <use href="#branch" transform="rotate(32 100 100)" />
    <use href="#branch" transform="rotate(34 100 100)" />
    <use href="#branch" transform="rotate(36 100 100)" />
    <use href="#branch" transform="rotate(38 100 100)" />
    <use href="#branch" transform="rotate(40 100 100)" />
    <use href="#branch" transform="rotate(42 100 100)" />
    <use href="#branch" transform="rotate(44 100 100)" />
    <use href="#branch" transform="rotate(46 100 100)" />
    <use href="#branch" transform="rotate(48 100 100)" />
    <use href="#branch" transform="rotate(50 100 100)" />
    <use href="#branch" transform="rotate(52 100 100)" />
    <use href="#branch" transform="rotate(54 100 100)" />
    <use href="#branch" transform="rotate(56 100 100)" />
    <use href="#branch" transform="rotate(58 100 100)" />
    <use href="#branch" transform="rotate(60 100 100)" />
    <use href="#branch" transform="rotate(62 100 100)" />
    <use href="#branch" transform="rotate(64 100 100)" />
    <use href="#branch" transform="rotate(66 100 100)" />
    <use href="#branch" transform="rotate(68 100 100)" />
    <use href="#branch" transform="rotate(70 100 100)" />
    <use href="#branch" transform="rotate(72 100 100)" />
    <use href="#branch" transform="rotate(74 100 100)" />
    <use href="#branch" transform="rotate(76 100 100)" />
    <use href="#branch" transform="rotate(78 100 100)" />
    <use href="#branch" transform="rotate(80 100 100)" />
    <use href="#branch" transform="rotate(82 100 100)" />
    <use href="#branch" transform="rotate(84 100 100)" />
    <use href="#branch" transform="rotate(86 100 100)" />
    <use href="#branch" transform="rotate(88 100 100)" />
    <use href="#branch" transform="rotate(90 100 100)" />
    <use href="#branch" transform="rotate(92 100 100)" />
    <use href="#branch" transform="rotate(94 100 100)" />
    <use href="#branch" transform="rotate(96 100 100)" />
    <use href="#branch" transform="rotate(98 100 100)" />
    <use href="#branch" transform="rotate(100 100 100)" />
    <use href="#branch" transform="rotate(102 100 100)" />
    <use href="#branch" transform="rotate(104 100 100)" />
    <use href="#branch" transform="rotate(106 100 100)" />
    <use href="#branch" transform="rotate(108 100 100)" />
    <use href="#branch" transform="rotate(110 100 100)" />
    <use href="#branch" transform="rotate(112 100 100)" />
    <use href="#branch" transform="rotate(114 100 100)" />
    <use href="#branch" transform="rotate(116 100 100)" />
    <use href="#branch" transform="rotate(118 100 100)" />
    <use href="#branch" transform="rotate(120 100 100)" />
    <use href="#branch" transform="rotate(122 100 100)" />
    <use href="#branch" transform="rotate(124 100 100)" />
    <use href="#branch" transform="rotate(126 100 100)" />
    <use href="#branch" transform="rotate(128 100 100)" />
    <use href="#branch" transform="rotate(130 100 100)" />
    <use href="#branch" transform="rotate(132 100 100)" />
    <use href="#branch" transform="rotate(134 100 100)" />
    <use href="#branch" transform="rotate(136 100 100)" />
    <use href="#branch" transform="rotate(138 100 100)" />
    <use href="#branch" transform="rotate(140 100 100)" />
    <use href="#branch" transform="rotate(142 100 100)" />
    <use href="#branch" transform="rotate(144 100 100)" />
    <use href="#branch" transform="rotate(146 100 100)" />
    <use href="#branch" transform="rotate(148 100 100)" />
    <use href="#branch" transform="rotate(150 100 100)" />
    <use href="#branch" transform="rotate(152 100 100)" />
    <use href="#branch" transform="rotate(154 100 100)" />
    <use href="#branch" transform="rotate(156 100 100)" />
    <use href="#branch" transform="rotate(158 100 100)" />
    <use href="#branch" transform="rotate(160 100 100)" />
    <use href="#branch" transform="rotate(162 100 100)" />
    <use href="#branch" transform="rotate(164 100 100)" />
    <use href="#branch" transform="rotate(166 100 100)" />
    <use href="#branch" transform="rotate(168 100 100)" />
    <use href="#branch" transform="rotate(170 100 100)" />
    <use href="#branch" transform="rotate(172 100 100)" />
    <use href="#branch" transform="rotate(174 100 100)" />
    <use href="#branch" transform="rotate(176 100 100)" />
    <use href="#branch" transform="rotate(178 100 100)" />
    <use href="#branch" transform="rotate(180 100 100)" />
    <use href="#branch" transform="rotate(182 100 100)" />
    <use href="#branch" transform="rotate(184 100 100)" />
    <use href="#branch" transform="rotate(186 100 100)" />
    <use href="#branch" transform="rotate(188 100 100)" />
    <use href="#branch" transform="rotate(190 100 100)" />
    <use href="#branch" transform="rotate(192 100 100)" />
    <use href="#branch" transform="rotate(194 100 100)" />
    <use href="#branch" transform="rotate(196 100 100)" />
    <use href="#branch" transform="rotate(198 100 100)" />
    <use href="#branch" transform="rotate(200 100 100)" />
    <use href="#branch" transform="rotate(202 100 100)" />
    <use href="#branch" transform="rotate(204 100 100)" />
    <use href="#branch" transform="rotate(206 100 100)" />
    <use href="#branch" transform="rotate(208 100 100)" />
    <use href="#branch" transform="rotate(210 100 100)" />
    <use href="#branch" transform="rotate(212 100 100)" />
    <use href="#branch" transform="rotate(214 100 100)" />
    <use href="#branch" transform="rotate(216 100 100)" />
    <use href="#branch" transform="rotate(218 100 100)" />
    <use href="#branch" transform="rotate(220 100 100)" />
    <use href="#branch" transform="rotate(222 100 100)" />
    <use href="#branch" transform="rotate(224 100 100)" />
    <use href="#branch" transform="rotate(226 100 100)" />
    <use href="#branch" transform="rotate(228 100 100)" />
    <use href="#branch" transform="rotate(230 100 100)" />
    <use href="#branch" transform="rotate(232 100 100)" />
    <use href="#branch" transform="rotate(234 100 100)" />
    <use href="#branch" transform="rotate(236 100 100)" />
    <use href="#branch" transform="rotate(238 100 100)" />
    <use href="#branch" transform="rotate(240 100 100)" />
    <use href="#branch" transform="rotate(242 100 100)" />
    <use href="#branch" transform="rotate(244 100 100)" />
    <use href="#branch" transform="rotate(246 100 100)" />
    <use href="#branch" transform="rotate(248 100 100)" />
    <use href="#branch" transform="rotate(250 100 100)" />
    <use href="#branch" transform="rotate(252 100 100)" />
    <use href="#branch" transform="rotate(254 100 100)" />
    <use href="#branch" transform="rotate(256 100 100)" />
    <use href="#branch" transform="rotate(258 100 100)" />
    <use href="#branch" transform="rotate(260 100 100)" />
    <use href="#branch" transform="rotate(262 100 100)" />
    <use href="#branch" transform="rotate(264 100 100)" />
    <use href="#branch" transform="rotate(266 100 100)" />
    <use href="#branch" transform="rotate(268 100 100)" />
    <use href="#branch" transform="rotate(270 100 100)" />
    <use href="#branch" transform="rotate(272 100 100)" />
    <use href="#branch" transform="rotate(274 100 100)" />
    <use href="#branch" transform="rotate(276 100 100)" />
    <use href="#branch" transform="rotate(278 100 100)" />
    <use href="#branch" transform="rotate(280 100 100)" />
    <use href="#branch" transform="rotate(282 100 100)" />
    <use href="#branch" transform="rotate(284 100 100)" />
    <use href="#branch" transform="rotate(286 100 100)" />
    <use href="#branch" transform="rotate(288 100 100)" />
    <use href="#branch" transform="rotate(290 100 100)" />
    <use href="#branch" transform="rotate(292 100 100)" />
    <use href="#branch" transform="rotate(294 100 100)" />
    <use href="#branch" transform="rotate(296 100 100)" />
    <use href="#branch" transform="rotate(298 100 100)" />
    <use href="#branch" transform="rotate(300 100 100)" />
    <use href="#branch" transform="rotate(302 100 100)" />
    <use href="#branch" transform="rotate(304 100 100)" />
    <use href="#branch" transform="rotate(306 100 100)" />
    <use href="#branch" transform="rotate(308 100 100)" />
    <use href="#branch" transform="rotate(310 100 100)" />
    <use href="#branch" transform="rotate(312 100 100)" />
    <use href="#branch" transform="rotate(314 100 100)" />
    <use href="#branch" transform="rotate(316 100 100)" />
    <use href="#branch" transform="rotate(318 100 100)" />
    <use href="#branch" transform="rotate(320 100 100)" />
    <use href="#branch" transform="rotate(322 100 100)" />
    <use href="#branch" transform="rotate(324 100 100)" />
    <use href="#branch" transform="rotate(326 100 100)" />
    <use href="#branch" transform="rotate(328 100 100)" />
    <use href="#branch" transform="rotate(330 100 100)" />
    <use href="#branch" transform="rotate(332 100 100)" />
    <use href="#branch" transform="rotate(334 100 100)" />
    <use href="#branch" transform="rotate(336 100 100)" />
    <use href="#branch" transform="rotate(338 100 100)" />
    <use href="#branch" transform="rotate(340 100 100)" />
    <use href="#branch" transform="rotate(342 100 100)" />
    <use href="#branch" transform="rotate(344 100 100)" />
    <use href="#branch" transform="rotate(346 100 100)" />
    <use href="#branch" transform="rotate(348 100 100)" />
    <use href="#branch" transform="rotate(350 100 100)" />
    <use href="#branch" transform="rotate(352 100 100)" />
    <use href="#branch" transform="rotate(354 100 100)" />
    <use href="#branch" transform="rotate(356 100 100)" />
    <use href="#branch" transform="rotate(358 100 100)" />
    
    <defs>
        <path
            id="branch2"
            d="
                M 100 10 L 100 20
            " 
            stroke="#000000"
            stroke-width="1"
        />
    </defs>
    <use href="#branch2" />
    <use href="#branch2" transform="rotate(10 100 100)" />
    <use href="#branch2" transform="rotate(20 100 100)" />
    <use href="#branch2" transform="rotate(30 100 100)" />
    <use href="#branch2" transform="rotate(40 100 100)" />
    <use href="#branch2" transform="rotate(50 100 100)" />
    <use href="#branch2" transform="rotate(60 100 100)" />
    <use href="#branch2" transform="rotate(70 100 100)" />
    <use href="#branch2" transform="rotate(80 100 100)" />
    <use href="#branch2" transform="rotate(90 100 100)" />
    <use href="#branch2" transform="rotate(100 100 100)" />
    <use href="#branch2" transform="rotate(110 100 100)" />
    <use href="#branch2" transform="rotate(120 100 100)" />
    <use href="#branch2" transform="rotate(130 100 100)" />
    <use href="#branch2" transform="rotate(140 100 100)" />
    <use href="#branch2" transform="rotate(150 100 100)" />
    <use href="#branch2" transform="rotate(160 100 100)" />
    <use href="#branch2" transform="rotate(170 100 100)" />
    <use href="#branch2" transform="rotate(180 100 100)" />
    <use href="#branch2" transform="rotate(190 100 100)" />
    <use href="#branch2" transform="rotate(200 100 100)" />
    <use href="#branch2" transform="rotate(210 100 100)" />
    <use href="#branch2" transform="rotate(220 100 100)" />
    <use href="#branch2" transform="rotate(230 100 100)" />
    <use href="#branch2" transform="rotate(240 100 100)" />
    <use href="#branch2" transform="rotate(250 100 100)" />
    <use href="#branch2" transform="rotate(260 100 100)" />
    <use href="#branch2" transform="rotate(270 100 100)" />
    <use href="#branch2" transform="rotate(280 100 100)" />
    <use href="#branch2" transform="rotate(290 100 100)" />
    <use href="#branch2" transform="rotate(300 100 100)" />
    <use href="#branch2" transform="rotate(310 100 100)" />
    <use href="#branch2" transform="rotate(320 100 100)" />
    <use href="#branch2" transform="rotate(330 100 100)" />
    <use href="#branch2" transform="rotate(340 100 100)" />
    <use href="#branch2" transform="rotate(350 100 100)" />

    <g>
        <text x="94.5" y="50" class="heavy">N</text>
    </g>
    <g transform="rotate(90, 100, 100)">
        <text x="95" y="50" class="heavy">E</text>
    </g>
    <g transform="rotate(180, 100, 100)">
        <text x="95" y="50" class="heavy">S</text>
    </g>
    <g transform="rotate(270, 100, 100)">
        <text x="93" y="50" class="heavy">W</text>
    </g>

    <g transform="rotate(0, 100, 100)">
        <text x="97.5" y="30" class="small">0</text>
    </g>
    <g transform="rotate(20, 100, 100)">
        <text x="95" y="30" class="small">20</text>
    </g>
    <g transform="rotate(40, 100, 100)">
        <text x="95" y="30" class="small">40</text>
    </g>
    <g transform="rotate(60, 100, 100)">
        <text x="95" y="30" class="small">60</text>
    </g>
    <g transform="rotate(80, 100, 100)">
        <text x="95" y="30" class="small">80</text>
    </g>
    <g transform="rotate(100, 100, 100)">
        <text x="92" y="30" class="small">100</text>
    </g>
    <g transform="rotate(120, 100, 100)">
        <text x="92" y="30" class="small">120</text>
    </g>
    <g transform="rotate(140, 100, 100)">
        <text x="92" y="30" class="small">140</text>
    </g>
    <g transform="rotate(160, 100, 100)">
        <text x="92" y="30" class="small">160</text>
    </g>
    <g transform="rotate(180, 100, 100)">
        <text x="92" y="30" class="small">180</text>
    </g>
    <g transform="rotate(200, 100, 100)">
        <text x="92" y="30" class="small">200</text>
    </g>
    <g transform="rotate(220, 100, 100)">
        <text x="92" y="30" class="small">220</text>
    </g>
    <g transform="rotate(240, 100, 100)">
        <text x="92" y="30" class="small">240</text>
    </g>
    <g transform="rotate(260, 100, 100)">
        <text x="92" y="30" class="small">260</text>
    </g>
    <g transform="rotate(280, 100, 100)">
        <text x="92" y="30" class="small">280</text>
    </g>
    <g transform="rotate(300, 100, 100)">
        <text x="92" y="30" class="small">300</text>
    </g>
    <g transform="rotate(320, 100, 100)">
        <text x="92" y="30" class="small">320</text>
    </g>
    <g transform="rotate(340, 100, 100)">
        <text x="92" y="30" class="small">340</text>
    </g>

</svg>