<?xml version="1.0" encoding="UTF-8"?>
<svg width="800" height="800" viewBox="0 0 200 200" xmlns="http://www.w3.org/2000/svg">
    <defs>
        <path
            id="branch"
            d="
                M 100 10 L 100 15
            " 
            stroke="#000000"
            stroke-width="0.4"
        />
    </defs>
    <use href="#branch" />
    <use href="#branch" transform="rotate(2 100 100)" />
    <use href="#branch" transform="rotate(4 100 100)" />
    <use href="#branch" transform="rotate(6 100 100)" />
    <use href="#branch" transform="rotate(8 100 100)" />
    <use href="#branch" transform="rotate(10 100 100)" />
    <use href="#branch" transform="rotate(12 100 100)" />
    <use href="#branch" transform="rotate(14 100 100)" />
    <use href="#branch" transform="rotate(16 100 100)" />
    <use href="#branch" transform="rotate(18 100 100)" />
    <use href="#branch" transform="rotate(20 100 100)" />
    <use href="#branch" transform="rotate(22 100 100)" />
    <use href="#branch" transform="rotate(24 100 100)" />
    <use href="#branch" transform="rotate(26 100 100)" />
    <use href="#branch" transform="rotate(28 100 100)" />
    <use href="#branch" transform="rotate(30 100 100)" />
    <use href="#branch" transform="rotate(32 100 100)" />
    <use href="#branch" transform="rotate(34 100 100)" />
    <use href="#branch" transform="rotate(36 100 100)" />
    <use href="#branch" transform="rotate(38 100 100)" />
    <use href="#branch" transform="rotate(40 100 100)" />
    <use href="#branch" transform="rotate(42 100 100)" />
    <use href="#branch" transform="rotate(44 100 100)" />
    <use href="#branch" transform="rotate(46 100 100)" />
    <use href="#branch" transform="rotate(48 100 100)" />
    <use href="#branch" transform="rotate(50 100 100)" />
    <use href="#branch" transform="rotate(52 100 100)" />
    <use href="#branch" transform="rotate(54 100 100)" />
    <use href="#branch" transform="rotate(56 100 100)" />
    <use href="#branch" transform="rotate(58 100 100)" />
    <use href="#branch" transform="rotate(60 100 100)" />
    <use href="#branch" transform="rotate(62 100 100)" />
    <use href="#branch" transform="rotate(64 100 100)" />
    <use href="#branch" transform="rotate(66 100 100)" />
    <use href="#branch" transform="rotate(68 100 100)" />
    <use href="#branch" transform="rotate(70 100 100)" />
    <use href="#branch" transform="rotate(72 100 100)" />
    <use href="#branch" transform="rotate(74 100 100)" />
    <use href="#branch" transform="rotate(76 100 100)" />
    <use href="#branch" transform="rotate(78 100 100)" />
    <use href="#branch" transform="rotate(80 100 100)" />
    <use href="#branch" transform="rotate(82 100 100)" />
    <use href="#branch" transform="rotate(84 100 100)" />
    <use href="#branch" transform="rotate(86 100 100)" />
    <use href="#branch" transform="rotate(88 100 100)" />
    <use href="#branch" transform="rotate(90 100 100)" />
    <use href="#branch" transform="rotate(92 100 100)" />
    <use href="#branch" transform="rotate(94 100 100)" />
    <use href="#branch" transform="rotate(96 100 100)" />
    <use href="#branch" transform="rotate(98 100 100)" />
    <use href="#branch" transform="rotate(100 100 100)" />
    <use href="#branch" transform="rotate(102 100 100)" />
    <use href="#branch" transform="rotate(104 100 100)" />
    <use href="#branch" transform="rotate(106 100 100)" />
    <use href="#branch" transform="rotate(108 100 100)" />
    <use href="#branch" transform="rotate(110 100 100)" />
    <use href="#branch" transform="rotate(112 100 100)" />
    <use href="#branch" transform="rotate(114 100 100)" />
    <use href="#branch" transform="rotate(116 100 100)" />
    <use href="#branch" transform="rotate(118 100 100)" />
    <use href="#branch" transform="rotate(120 100 100)" />
    <use href="#branch" transform="rotate(122 100 100)" />
    <use href="#branch" transform="rotate(124 100 100)" />
    <use href="#branch" transform="rotate(126 100 100)" />
    <use href="#branch" transform="rotate(128 100 100)" />
    <use href="#branch" transform="rotate(130 100 100)" />
    <use href="#branch" transform="rotate(132 100 100)" />
    <use href="#branch" transform="rotate(134 100 100)" />
    <use href="#branch" transform="rotate(136 100 100)" />
    <use href="#branch" transform="rotate(138 100 100)" />
    <use href="#branch" transform="rotate(140 100 100)" />
    <use href="#branch" transform="rotate(142 100 100)" />
    <use href="#branch" transform="rotate(144 100 100)" />
    <use href="#branch" transform="rotate(146 100 100)" />
    <use href="#branch" transform="rotate(148 100 100)" />
    <use href="#branch" transform="rotate(150 100 100)" />
    <use href="#branch" transform="rotate(152 100 100)" />
    <use href="#branch" transform="rotate(154 100 100)" />
    <use href="#branch" transform="rotate(156 100 100)" />
    <use href="#branch" transform="rotate(158 100 100)" />
    <use href="#branch" transform="rotate(160 100 100)" />
    <use href="#branch" transform="rotate(162 100 100)" />
    <use href="#branch" transform="rotate(164 100 100)" />
    <use href="#branch" transform="rotate(166 100 100)" />
    <use href="#branch" transform="rotate(168 100 100)" />
    <use href="#branch" transform="rotate(170 100 100)" />
    <use href="#branch" transform="rotate(172 100 100)" />
    <use href="#branch" transform="rotate(174 100 100)" />
    <use href="#branch" transform="rotate(176 100 100)" />
    <use href="#branch" transform="rotate(178 100 100)" />
    <use href="#branch" transform="rotate(180 100 100)" />
    <use href="#branch" transform="rotate(182 100 100)" />
    <use href="#branch" transform="rotate(184 100 100)" />
    <use href="#branch" transform="rotate(186 100 100)" />
    <use href="#branch" transform="rotate(188 100 100)" />
    <use href="#branch" transform="rotate(190 100 100)" />
    <use href="#branch" transform="rotate(192 100 100)" />
    <use href="#branch" transform="rotate(194 100 100)" />
    <use href="#branch" transform="rotate(196 100 100)" />
    <use href="#branch" transform="rotate(198 100 100)" />
    <use href="#branch" transform="rotate(200 100 100)" />
    <use href="#branch" transform="rotate(202 100 100)" />
    <use href="#branch" transform="rotate(204 100 100)" />
    <use href="#branch" transform="rotate(206 100 100)" />
    <use href="#branch" transform="rotate(208 100 100)" />
    <use href="#branch" transform="rotate(210 100 100)" />
    <use href="#branch" transform="rotate(212 100 100)" />
    <use href="#branch" transform="rotate(214 100 100)" />
    <use href="#branch" transform="rotate(216 100 100)" />
    <use href="#branch" transform="rotate(218 100 100)" />
    <use href="#branch" transform="rotate(220 100 100)" />
    <use href="#branch" transform="rotate(222 100 100)" />
    <use href="#branch" transform="rotate(224 100 100)" />
    <use href="#branch" transform="rotate(226 100 100)" />
    <use href="#branch" transform="rotate(228 100 100)" />
    <use href="#branch" transform="rotate(230 100 100)" />
    <use href="#branch" transform="rotate(232 100 100)" />
    <use href="#branch" transform="rotate(234 100 100)" />
    <use href="#branch" transform="rotate(236 100 100)" />
    <use href="#branch" transform="rotate(238 100 100)" />
</svg>