<?xml version="1.0" encoding="UTF-8"?>
<svg width="48" height="48" viewBox="0 0 200 200" xmlns="http://www.w3.org/2000/svg">
    <path
        d="
            M 55 185
            L 145 185
            L 135 50
            C 135 5 65 5 65 45
            L 55 185
        "
        fill="#000000"
    />
    <line x1="50" y1="185" x2="150" y2="185" stroke="#000000" stroke-width="10" stroke-linecap="round"/>
    <rect x="85" y="95" width="30" height="80" fill="#98793E"/>
    
    <circle cx="53" cy="165" r="7" fill="#AB9D44"/>
    <circle cx="55" cy="145" r="7" fill="#AB9D44"/>
    <circle cx="57" cy="125" r="7" fill="#AB9D44"/>
    <circle cx="59" cy="105" r="7" fill="#AB9D44"/>

    <circle cx="147" cy="165" r="7" fill="#AB9D44"/>
    <circle cx="145" cy="145" r="7" fill="#AB9D44"/>
    <circle cx="143" cy="125" r="7" fill="#AB9D44"/>
    <circle cx="141" cy="105" r="7" fill="#AB9D44"/>

    <defs>
        <path
            id="branch"
            d="
                M 95 10
                L 105 10
                L 103 0
                L 97 0
                L 95 10
            " 
            fill = "#65BEEA"
            stroke="#2E55E3"
            stroke-width="1"
        />
    </defs>
    <use href="#branch" transform="rotate(-45 100 50)"/>
    <use href="#branch" transform="rotate(45 100 50)"/>
    
    <polygon points="50,175 80,175 80,95 58,95" fill="#98793E"/>
    <polygon points="150,175 120,175 120,95 142,95" fill="#98793E"/>
    <rect x="58" y="70" width="84" height="20" fill="#98793E"/>
    <rect x="88" y="50" width="24" height="15" fill="#98793E"/>
    <rect x="59" y="50" width="24" height="15" fill="#98793E"/>
    <rect x="117" y="50" width="24" height="15" fill="#98793E"/>
    <path
        d="
            M 59 45
            L 141 45
            C 141 0 59 0 59 45
        "
        fill="#98793E"
    />

    <circle cx="66" cy="165" r="7" fill="#AB9D44"/>
    <circle cx="67" cy="145" r="7" fill="#AB9D44"/>
    <circle cx="68" cy="125" r="7" fill="#AB9D44"/>
    <circle cx="69" cy="105" r="7" fill="#AB9D44"/>

    <circle cx="134" cy="165" r="7" fill="#AB9D44"/>
    <circle cx="133" cy="145" r="7" fill="#AB9D44"/>
    <circle cx="132" cy="125" r="7" fill="#AB9D44"/>
    <circle cx="131" cy="105" r="7" fill="#AB9D44"/>

    <circle cx="100" cy="165" r="7" fill="#AB9D44"/>
    <circle cx="100" cy="145" r="7" fill="#AB9D44"/>
    <circle cx="100" cy="125" r="7" fill="#AB9D44"/>
    <circle cx="100" cy="105" r="7" fill="#AB9D44"/>

    <rect x="68" y="73" width="14" height="14" fill="#AB9D44"/>
    <rect x="118" y="73" width="14" height="14" fill="#AB9D44"/>
    <line x1="75" y1="80" x2="55" y2="70" stroke="#A3A3A3" stroke-width="6" stroke-linecap="round"/>
    <circle cx="55" cy="70" r="9" fill="#000000"/>
    <line x1="125" y1="80" x2="145" y2="70" stroke="#A3A3A3" stroke-width="6" stroke-linecap="round"/>

    <circle cx="100" cy="30" r="9" fill="#2E55E3" stroke="#000000" stroke-width="3"/>
</svg>