<?xml version="1.0" encoding="UTF-8"?>
<svg width="48" height="48" viewBox="0 0 200 200" xmlns="http://www.w3.org/2000/svg">
    <rect x="95" y="10" width="10" height="10" fill="#FFFF9E"/>
    <line x1="95" y1="10" x2="105" y2="10" stroke="#003865" stroke-width="2"/>
    <line x1="95" y1="10" x2="95" y2="20" stroke="#003865" stroke-width="2"/>
    <line x1="105" y1="10" x2="105" y2="20" stroke="#003865" stroke-width="2"/>
    <rect x="60" y="20" width="80" height="10" fill="#003865"/>
    <rect x="50" y="30" width="100" height="10" fill="#003865"/>
    <rect x="50" y="40" width="100" height="10" fill="#000000" stroke="#003865" stroke-width="4"/>
    <rect x="50" y="50" width="100" height="130" fill="#003865"/>
    <rect x="55" y="50" width="90" height="130" fill="none" stroke="#000000" stroke-width="2"/>   
    <line x1="100" y1="50" x2="100" y2="180" stroke="#000000" stroke-width="2"/>
    <rect x="40" y="180" width="120" height="10" fill="#003865"/>
    <rect x="67" y="60" width="25" height="30" fill="#FFFF9E"/>
    <line x1="79.5" y1="60" x2="79.5" y2="90" stroke="#000000" stroke-width="2"/>
    <line x1="67" y1="70" x2="92" y2="70" stroke="#000000" stroke-width="2"/>
    <line x1="67" y1="80" x2="92" y2="80" stroke="#000000" stroke-width="2"/>
    <rect x="108" y="60" width="25" height="30" fill="#FFFF9E"/>
    <line x1="120.5" y1="60" x2="120.5" y2="90" stroke="#000000" stroke-width="2"/>
    <line x1="108" y1="70" x2="133" y2="70" stroke="#000000" stroke-width="2"/>
    <line x1="108" y1="80" x2="133" y2="80" stroke="#000000" stroke-width="2"/>
    <rect x="67" y="60" width="25" height="30" fill="none" stroke="#000000" stroke-width="2"/>
    <rect x="108" y="60" width="25" height="30" fill="none" stroke="#000000" stroke-width="2"/>
    <rect x="67" y="100" width="25" height="30" fill="none" stroke="#000000" stroke-width="2"/>
    <rect x="72" y="105" width="15" height="20" fill="#FFFFFF"/>
    <rect x="108" y="100" width="25" height="30" fill="none" stroke="#000000" stroke-width="2"/>
    <rect x="67" y="140" width="25" height="30" fill="none" stroke="#000000" stroke-width="2"/>
    <rect x="108" y="140" width="25" height="30" fill="none" stroke="#000000" stroke-width="2"/>
</svg>