<?xml version="1.0" encoding="UTF-8"?>
<svg width="48" height="48" viewBox="0 0 200 200" xmlns="http://www.w3.org/2000/svg">
    <rect x="93.5" y="10" width="13" height="13" fill="#000000"/>
    <rect x="106.5" y="10" width="13" height="13" fill="#000000"/>
    
    <rect x="80.5" y="23" width="13" height="13" fill="#000000"/>
    <rect x="93.5" y="23" width="13" height="13" fill="#c58c85"/>
    <rect x="106.5" y="23" width="13" height="13" fill="#000000"/>
    <rect x="119.5" y="23" width="13" height="13" fill="#c58c85"/>

    <rect x="80.5" y="36" width="13" height="13" fill="#000000"/>
    <rect x="93.5" y="36" width="13" height="13" fill="#c58c85"/>
    <rect x="106.5" y="36" width="13" height="13" fill="#000000"/>
    <rect x="132.5" y="36" width="13" height="13" fill="#c58c85"/>

    <rect x="67.5" y="49" width="13" height="13" fill="#c58c85"/>
    <rect x="80.5" y="49" width="13" height="13" fill="#c58c85"/>
    <rect x="93.5" y="49" width="13" height="13" fill="#c58c85"/>
    <rect x="106.5" y="49" width="13" height="13" fill="#c58c85"/>
    <rect x="145.5" y="49" width="13" height="13" fill="#c58c85"/>

    <rect x="54.5" y="62" width="13" height="13" fill="#c58c85"/>
    <rect x="80.5" y="62" width="13" height="13" fill="#0000ff"/>
    <rect x="93.5" y="62" width="13" height="13" fill="#c58c85"/>
    <rect x="106.5" y="62" width="13" height="13" fill="#0000ff"/>
    <rect x="119.5" y="62" width="13" height="13" fill="#c58c85"/>
    <rect x="132.5" y="62" width="13" height="13" fill="#c58c85"/>

    <rect x="54.5" y="75" width="13" height="13" fill="#c58c85"/>
    <rect x="80.5" y="75" width="13" height="13" fill="#c58c85"/>
    <rect x="93.5" y="75" width="13" height="13" fill="#c58c85"/>
    <rect x="106.5" y="75" width="13" height="13" fill="#c58c85"/>
    
    <rect x="54.5" y="88" width="13" height="13" fill="#c58c85"/>
    <rect x="80.5" y="88" width="13" height="13" fill="#c58c85"/>
    <rect x="93.5" y="88" width="13" height="13" fill="#c58c85"/>
    <rect x="106.5" y="88" width="13" height="13" fill="#c58c85"/>

    <rect x="67.5" y="101" width="13" height="13" fill="#c58c85"/>
    <rect x="80.5" y="101" width="13" height="13" fill="#0000ff"/>
    <rect x="93.5" y="101" width="13" height="13" fill="#0000ff"/>
    <rect x="106.5" y="101" width="13" height="13" fill="#0000ff"/>

    <rect x="80.5" y="114" width="13" height="13" fill="#c58c85"/>
    <rect x="93.5" y="114" width="13" height="13" fill="#0000ff"/>
    <rect x="106.5" y="114" width="13" height="13" fill="#c58c85"/>

    <rect x="80.5" y="127" width="13" height="13" fill="#c58c85"/>
    <rect x="106.5" y="127" width="13" height="13" fill="#c58c85"/>

    <rect x="80.5" y="140" width="13" height="13" fill="#c58c85"/>
    <rect x="106.5" y="140" width="13" height="13" fill="#c58c85"/>

    <rect x="80.5" y="153" width="13" height="13" fill="#c58c85"/>
    <rect x="106.5" y="153" width="13" height="13" fill="#c58c85"/>

    <rect x="80.5" y="166" width="13" height="13" fill="#c58c85"/>
    <rect x="106.5" y="166" width="13" height="13" fill="#c58c85"/>

    <rect x="67.5" y="179" width="13" height="13" fill="#c58c85"/>
    <rect x="80.5" y="179" width="13" height="13" fill="#c58c85"/>
    <rect x="106.5" y="179" width="13" height="13" fill="#c58c85"/>
    <rect x="119.5" y="179" width="13" height="13" fill="#c58c85"/>
</svg>