<?xml version="1.0" encoding="utf-8"?>
<svg width="48" height="48" viewBox="0 0 3600 3800" xmlns="http://www.w3.org/2000/svg">
    <path
        d="
        M 605 3440.44
        C 605 3440.44 385 3440.44 385 3220.44
        L 385 1154.41
        C 385 1154.41 385 1026.74 495.85 963.39
        L 1690.85 280.54
        C 1690.85 280.54 1800 218.16 1909.15 280.54
        L 3104.15 963.39
        C 3104.15 963.39 3215 1026.74 3215 1154.41
        L 3215 3220.44
        C 3215 3220.44 3215 3440.44 2995 3440.44
        L 605 3440.44
        "
        fill="none"
        stroke="#ffffff"
        stroke-width="190"
    />
    <path
        d="
        M 763.97 2932.79
        L 1780.00 2346.19 
        L 1780.00 2946.19
        L 2799.13 2357.79
        L 2764.13 2297.17
        L 3014.53 2320.03
        L 2909.13 2548.32
        L 2874.13 2487.69
        L 1630.00 3206.00
        L 1630.00 2606.00
        L 838.97 3062.69
        L 763.97 2932.79
        "
        fill="#ffffff"
    />
    <path
        d="
        M 1040 1845.58
        L 1340 1845.58
        L 1340 2530.94
        L 1040 2704.15
        L 1040 1845.58
        "
        fill="#ffffff"
    />
    <path
        d="
        M 1400 1507.74
        L 1700 1507.74
        L 1700 2323.09
        L 1400 2496.30
        L 1400 1507.74
        "
        fill="#ffffff"
    />
    <path
        d="
        M 1760 1973.09
        L 2060 1973.09
        L 2060 2715.25
        L 1840 2842.26
        L 1840 2242.26
        L 1760 2288.45
        L 1760 1973.09
        "
        fill="#ffffff"
    />
    <path
        d="
        M 2120 1415.25
        L 2420 1415.25
        L 2420 2507.40
        L 2120 2680.61
        L 2120 1415.25
        "
        fill="#ffffff"
    />
    <path
        d="
        M 830 2774.67
        L 830 1355.61
        C 830 1355.61 830 1205.61 980 1205.61
        L 2480 1205.61
        C 2480 1205.61 2630 1205.61 2630 1355.61
        L 2630 2335.44
        "
        fill="none"
        stroke="#ffffff"
        stroke-width="100"
        stroke-linecap="round"
    />
</svg>